<?xml version="1.0" encoding="UTF-8" standalone="no"?>
<svg
   xmlns:dc="http://purl.org/dc/elements/1.1/"
   xmlns:cc="http://creativecommons.org/ns#"
   xmlns:rdf="http://www.w3.org/1999/02/22-rdf-syntax-ns#"
   xmlns:svg="http://www.w3.org/2000/svg"
   xmlns="http://www.w3.org/2000/svg"
   viewBox="0 0 213.44 155.84"
   height="155.84"
   width="213.44"
   xml:space="preserve"
   id="svg2"
   version="1.1"><metadata
     id="metadata8"><rdf:RDF><cc:Work
         rdf:about=""><dc:format>image/svg+xml</dc:format><dc:type
           rdf:resource="http://purl.org/dc/dcmitype/StillImage" /></cc:Work></rdf:RDF></metadata><defs
     id="defs6"><clipPath
       id="clipPath18"
       clipPathUnits="userSpaceOnUse"><path
         style="clip-rule:evenodd"
         id="path16"
         d="M 0,0 H 666.66663 V 484.30493 H 0 Z" /></clipPath></defs><g
     transform="matrix(0.31999998,0,0,0.31999998,0,7.8959999e-6)"
     id="g10"><g
       id="g12"><g
         clip-path="url(#clipPath18)"
         id="g14"><g
           transform="matrix(2.9895365,0,0,2.9895365,1.4947683,1.4947683)"
           id="g20"><path
             id="path22"
             style="fill:#ffffff;fill-opacity:1;fill-rule:nonzero;stroke:none"
             d="m 60,101 h 102 c 0.59094,1e-5 1.17621,0.0576 1.7558,0.17293 0.57959,0.11529 1.14236,0.286 1.68834,0.51214 0.54596,0.22615 1.06462,0.50338 1.55597,0.83171 0.49136,0.3283 0.94598,0.70139 1.36384,1.11925 0.41786,0.41786 0.79094,0.87247 1.11925,1.36383 0.32831,0.49135 0.60555,1.01001 0.8317,1.55598 0.22615,0.54597 0.39686,1.10874 0.51216,1.68834 C 170.94235,108.82378 171,109.40905 171,110 v 42 c 0,0.59093 -0.0576,1.17619 -0.17294,1.7558 -0.1153,0.57959 -0.28601,1.14236 -0.51216,1.68832 -0.22615,0.54596 -0.50339,1.06462 -0.8317,1.55597 -0.32831,0.49138 -0.70139,0.94598 -1.11925,1.36385 -0.41786,0.41786 -0.87248,0.79095 -1.36384,1.11926 -0.49135,0.32831 -1.01001,0.60555 -1.55597,0.8317 -0.54598,0.22615 -1.10875,0.39686 -1.68834,0.51216 C 163.17621,160.94235 162.59094,161 162,161 H 60 c -0.590954,0 -1.176228,-0.0576 -1.755821,-0.17294 -0.579594,-0.1153 -1.142372,-0.28601 -1.688339,-0.51216 -0.545964,-0.22615 -1.064625,-0.50339 -1.555981,-0.8317 -0.491352,-0.32831 -0.945961,-0.7014 -1.363823,-1.11926 -0.417866,-0.41787 -0.790955,-0.87247 -1.119267,-1.36383 -0.328312,-0.49137 -0.605545,-1.01003 -0.831691,-1.55599 -0.226147,-0.54596 -0.396862,-1.10873 -0.51215,-1.68832 C 51.057644,153.17619 51,152.59093 51,152 v -42 c 0,-0.59095 0.05764,-1.17622 0.172928,-1.75582 0.115288,-0.5796 0.286003,-1.14237 0.51215,-1.68834 0.226146,-0.54597 0.503379,-1.06463 0.831691,-1.55598 0.328312,-0.49136 0.701401,-0.94597 1.119267,-1.36383 0.417862,-0.41786 0.872471,-0.79095 1.363827,-1.11927 0.491352,-0.32831 1.010013,-0.60554 1.55598,-0.83169 0.545964,-0.22614 1.108742,-0.39685 1.688336,-0.51214 C 58.823772,101.05765 59.409046,101.00001 60,101 Z" /><path
             id="path24"
             style="fill:none;stroke:#000000;stroke-width:1;stroke-linecap:butt;stroke-linejoin:miter;stroke-miterlimit:10;stroke-dasharray:none;stroke-opacity:1"
             d="m 60,101 h 102 c 0.59094,1e-5 1.17621,0.0576 1.7558,0.17293 0.57959,0.11529 1.14236,0.286 1.68834,0.51214 0.54596,0.22615 1.06462,0.50338 1.55597,0.83171 0.49136,0.3283 0.94598,0.70139 1.36384,1.11925 0.41786,0.41786 0.79094,0.87247 1.11925,1.36383 0.32831,0.49135 0.60555,1.01001 0.8317,1.55598 0.22615,0.54597 0.39686,1.10874 0.51216,1.68834 C 170.94235,108.82378 171,109.40905 171,110 v 42 c 0,0.59093 -0.0576,1.17619 -0.17294,1.7558 -0.1153,0.57959 -0.28601,1.14236 -0.51216,1.68832 -0.22615,0.54596 -0.50339,1.06462 -0.8317,1.55597 -0.32831,0.49138 -0.70139,0.94598 -1.11925,1.36385 -0.41786,0.41786 -0.87248,0.79095 -1.36384,1.11926 -0.49135,0.32831 -1.01001,0.60555 -1.55597,0.8317 -0.54598,0.22615 -1.10875,0.39686 -1.68834,0.51216 C 163.17621,160.94235 162.59094,161 162,161 H 60 c -0.590954,0 -1.176228,-0.0576 -1.755821,-0.17294 -0.579594,-0.1153 -1.142372,-0.28601 -1.688339,-0.51216 -0.545964,-0.22615 -1.064625,-0.50339 -1.555981,-0.8317 -0.491352,-0.32831 -0.945961,-0.7014 -1.363823,-1.11926 -0.417866,-0.41787 -0.790955,-0.87247 -1.119267,-1.36383 -0.328312,-0.49137 -0.605545,-1.01003 -0.831691,-1.55599 -0.226147,-0.54596 -0.396862,-1.10873 -0.51215,-1.68832 C 51.057644,153.17619 51,152.59093 51,152 v -42 c 0,-0.59095 0.05764,-1.17622 0.172928,-1.75582 0.115288,-0.5796 0.286003,-1.14237 0.51215,-1.68834 0.226146,-0.54597 0.503379,-1.06463 0.831691,-1.55598 0.328312,-0.49136 0.701401,-0.94597 1.119267,-1.36383 0.417862,-0.41786 0.872471,-0.79095 1.363827,-1.11927 0.491352,-0.32831 1.010013,-0.60554 1.55598,-0.83169 0.545964,-0.22614 1.108742,-0.39685 1.688336,-0.51214 C 58.823772,101.05765 59.409046,101.00001 60,101 Z" /></g><g
           transform="scale(2.9895365)"
           id="g26"><text
             id="text30"
             style="font-variant:normal;font-weight:normal;font-size:14px;font-family:ArialMT;-inkscape-font-specification:ArialMT;writing-mode:lr-tb;fill:#000000;fill-opacity:1;fill-rule:nonzero;stroke:none"
             transform="translate(71.703125,137)"><tspan
               id="tspan28"
               y="0"
               x="0 9.3378906 17.124023 24.124023 27.234375 31.896484 39.682617 47.46875 59.130859 66.916992 74.703125">Environment</tspan></text>
</g><g
           transform="matrix(2.9895365,0,0,2.9895365,1.4947683,1.4947683)"
           id="g32"><path
             id="path34"
             style="fill:#ffffff;fill-opacity:1;fill-rule:nonzero;stroke:none"
             d="m 60,1 h 102 c 0.59094,0 1.17621,0.057644 1.7558,0.1729325 0.57959,0.1152883 1.14236,0.2860055 1.68834,0.5121516 0.54596,0.2261462 1.06462,0.503376 1.55597,0.8316891 0.49136,0.3283134 0.94598,0.7014017 1.36384,1.1192653 0.41786,0.4178636 0.79094,0.8724735 1.11925,1.3638289 0.32831,0.4913555 0.60555,1.0100155 0.8317,1.5559807 0.22615,0.5459657 0.39686,1.1087451 0.51216,1.6883383 C 170.94235,8.8237801 171,9.4090509 171,10 v 42 c 0,0.590946 -0.0576,1.176216 -0.17294,1.755806 -0.1153,0.579594 -0.28601,1.142376 -0.51216,1.688339 -0.22615,0.545963 -0.50339,1.064621 -0.8317,1.555977 -0.32831,0.491356 -0.70139,0.945969 -1.11925,1.363834 -0.41786,0.417866 -0.87248,0.790955 -1.36384,1.119267 -0.49135,0.328312 -1.01001,0.605537 -1.55597,0.831684 -0.54598,0.226147 -1.10875,0.396866 -1.68834,0.512154 C 163.17621,60.942352 162.59094,60.999996 162,61 H 60 c -0.590954,-4e-6 -1.176228,-0.05765 -1.755821,-0.172939 C 57.664585,60.711773 57.101807,60.541054 56.55584,60.314907 56.009876,60.08876 55.491215,59.811531 54.999859,59.483219 54.508507,59.154907 54.053898,58.781822 53.636036,58.363956 53.21817,57.946091 52.845081,57.491478 52.516769,57.000126 52.188457,56.508766 51.911224,55.990108 51.685078,55.444145 51.458931,54.898182 51.288216,54.3354 51.172928,53.755806 51.057644,53.176216 51,52.590946 51,52 V 10 C 51,9.4090509 51.057644,8.8237801 51.172928,8.2441864 51.288216,7.6645932 51.458931,7.1018138 51.685078,6.5558481 51.911224,6.0098829 52.188457,5.4912224 52.516769,4.999867 52.845081,4.5085115 53.21817,4.0539021 53.636036,3.6360385 54.053898,3.2181749 54.508507,2.8450866 54.999863,2.5167732 55.491215,2.1884599 56.009876,1.9112301 56.555843,1.685084 57.101807,1.4589379 57.664585,1.2882206 58.244179,1.1729324 58.823772,1.0576441 59.409046,1 60,1 Z" /><path
             id="path36"
             style="fill:none;stroke:#000000;stroke-width:1;stroke-linecap:butt;stroke-linejoin:miter;stroke-miterlimit:10;stroke-dasharray:none;stroke-opacity:1"
             d="m 60,1 h 102 c 0.59094,0 1.17621,0.057644 1.7558,0.1729325 0.57959,0.1152883 1.14236,0.2860055 1.68834,0.5121516 0.54596,0.2261462 1.06462,0.503376 1.55597,0.8316891 0.49136,0.3283134 0.94598,0.7014017 1.36384,1.1192653 0.41786,0.4178636 0.79094,0.8724735 1.11925,1.3638289 0.32831,0.4913555 0.60555,1.0100155 0.8317,1.5559807 0.22615,0.5459657 0.39686,1.1087451 0.51216,1.6883383 C 170.94235,8.8237801 171,9.4090509 171,10 v 42 c 0,0.590946 -0.0576,1.176216 -0.17294,1.755806 -0.1153,0.579594 -0.28601,1.142376 -0.51216,1.688339 -0.22615,0.545963 -0.50339,1.064621 -0.8317,1.555977 -0.32831,0.491356 -0.70139,0.945969 -1.11925,1.363834 -0.41786,0.417866 -0.87248,0.790955 -1.36384,1.119267 -0.49135,0.328312 -1.01001,0.605537 -1.55597,0.831684 -0.54598,0.226147 -1.10875,0.396866 -1.68834,0.512154 C 163.17621,60.942352 162.59094,60.999996 162,61 H 60 c -0.590954,-4e-6 -1.176228,-0.05765 -1.755821,-0.172939 C 57.664585,60.711773 57.101807,60.541054 56.55584,60.314907 56.009876,60.08876 55.491215,59.811531 54.999859,59.483219 54.508507,59.154907 54.053898,58.781822 53.636036,58.363956 53.21817,57.946091 52.845081,57.491478 52.516769,57.000126 52.188457,56.508766 51.911224,55.990108 51.685078,55.444145 51.458931,54.898182 51.288216,54.3354 51.172928,53.755806 51.057644,53.176216 51,52.590946 51,52 V 10 C 51,9.4090509 51.057644,8.8237801 51.172928,8.2441864 51.288216,7.6645932 51.458931,7.1018138 51.685078,6.5558481 51.911224,6.0098829 52.188457,5.4912224 52.516769,4.999867 52.845081,4.5085115 53.21817,4.0539021 53.636036,3.6360385 54.053898,3.2181749 54.508507,2.8450866 54.999863,2.5167732 55.491215,2.1884599 56.009876,1.9112301 56.555843,1.685084 57.101807,1.4589379 57.664585,1.2882206 58.244179,1.1729324 58.823772,1.0576441 59.409046,1 60,1 Z" /></g><g
           transform="scale(2.9895365)"
           id="g38"><text
             id="text42"
             style="font-variant:normal;font-weight:normal;font-size:14px;font-family:ArialMT;-inkscape-font-specification:ArialMT;writing-mode:lr-tb;fill:#000000;fill-opacity:1;fill-rule:nonzero;stroke:none"
             transform="translate(92.703125,37)"><tspan
               id="tspan40"
               y="0"
               x="0 9.3378906 17.124023 24.910156 32.696289">Agent</tspan></text>
</g><g
           transform="matrix(2.9895365,0,0,2.9895365,1.4947683,1.4947683)"
           id="g44"><path
             id="path46"
             style="fill:none;stroke:#000000;stroke-width:1;stroke-linecap:butt;stroke-linejoin:miter;stroke-miterlimit:10;stroke-dasharray:none;stroke-opacity:1"
             d="m 171,131 c 33.33334,0 50,-16.66666 50,-50 0,-33.333336 -14.54333,-50 -43.63,-50" /><path
             id="path48"
             style="fill:#000000;fill-opacity:1;fill-rule:nonzero;stroke:none"
             d="m 172.12,31 7,-3.5 -1.75,3.5 1.75,3.5 z" /><path
             id="path50"
             style="fill:none;stroke:#000000;stroke-width:1;stroke-linecap:butt;stroke-linejoin:miter;stroke-miterlimit:10;stroke-dasharray:none;stroke-opacity:1"
             d="m 172.12,31 7,-3.5 -1.75,3.5 1.75,3.5 z" /><path
             id="path52"
             style="fill:none;stroke:#000000;stroke-width:1;stroke-linecap:butt;stroke-linejoin:miter;stroke-miterlimit:10;stroke-dasharray:none;stroke-opacity:1"
             d="M 51,31 C 17.666664,31 1,48.833332 1,84.5 c 0,35.66667 14.543333,53.50667 43.630001,53.52" /><path
             id="path54"
             style="fill:#000000;fill-opacity:1;fill-rule:nonzero;stroke:none"
             d="m 49.880001,138.02 -7,3.5 1.75,-3.5 -1.75,-3.5 z" /><path
             id="path56"
             style="fill:none;stroke:#000000;stroke-width:1;stroke-linecap:butt;stroke-linejoin:miter;stroke-miterlimit:10;stroke-dasharray:none;stroke-opacity:1"
             d="m 49.880001,138.02 -7,3.5 1.75,-3.5 -1.75,-3.5 z" /></g><g
           transform="scale(2.9895365)"
           id="g58"><text
             id="text62"
             style="font-variant:normal;font-weight:normal;font-size:12px;font-family:ArialMT;-inkscape-font-specification:ArialMT;writing-mode:lr-tb;fill:#000000;fill-opacity:1;fill-rule:nonzero;stroke:none"
             transform="translate(149.15625,79)"><tspan
               id="tspan60"
               y="0"
               x="0 9.3339844 16.007812 22.007812 28.681641 32.677734 38.677734 45.351562 48.685547 51.351562 58.025391">Observation</tspan></text>
<text
             id="text66"
             style="font-variant:normal;font-weight:normal;font-size:12px;font-family:ArialMT;-inkscape-font-specification:ArialMT;writing-mode:lr-tb;fill:#000000;fill-opacity:1;fill-rule:nonzero;stroke:none"
             transform="translate(162.50586,93)"><tspan
               id="tspan64"
               y="0"
               x="0 8.6660156 15.339844 24.005859 30.679688 34.675781">Reward</tspan></text>
<text
             id="text70"
             style="font-variant:normal;font-weight:normal;font-size:12px;font-family:ArialMT;-inkscape-font-specification:ArialMT;writing-mode:lr-tb;fill:#000000;fill-opacity:1;fill-rule:nonzero;stroke:none"
             transform="translate(9.828125,86)"><tspan
               id="tspan68"
               y="0"
               x="0 8.0039062 14.003906 17.337891 20.003906 26.677734">Action</tspan></text>
</g></g></g></g></svg>