<?xml version="1.0" encoding="utf-8"?>
<!-- Generator: Adobe Illustrator 24.0.3, SVG Export Plug-In . SVG Version: 6.00 Build 0)  -->
<svg version="1.1" id="Calque_1" xmlns="http://www.w3.org/2000/svg" xmlns:xlink="http://www.w3.org/1999/xlink" x="0px" y="0px"
	 viewBox="0 0 594.9 157.7" style="enable-background:new 0 0 594.9 157.7;" xml:space="preserve">
<g>
	<path d="M0,1c6.3,0,12.4,0,18.7,0c0,1.1,0,2,0,2.9c0,28.7,0,57.4,0,86.1c0,6.3,0.4,12.6,2,18.8c4.1,16.4,14.7,26,31.2,28.9
		c4.4,0.8,8.9,1,13.4,1.1c12.8,0.1,25.6,0,38.4,0c0.9,0,1.7,0,3,0c-2.7,6.1-5.3,11.8-7.9,17.6c-0.4,0.1-0.8,0.2-1.2,0.2
		c-14.4,0-28.8,0.2-43.2-0.2c-10.3-0.2-20-3.1-28.8-8.7C13.9,140.3,6.8,129.6,3,116.6c-2-6.8-3-13.7-3-20.8C0,64.9,0,34.1,0,3.2
		C0,2.6,0,1.9,0,1z"/>
	<path d="M122.8,103.1c-2.7,6-5.2,11.6-7.8,17.3c-0.8,0-1.6,0-2.4,0c-14.1,0-28.1,0-42.2,0c-3.9,0-7.7-0.4-11.4-1.4
		c-10.4-2.9-16.8-9.8-19-20.3c-0.6-2.9-0.9-6-0.9-9C39,61,39,32.3,39,3.6c0-0.8,0-1.6,0-2.5c6.1,0,12,0,18.1,0c0,1,0,1.9,0,2.9
		c0,28.2,0,56.4,0,84.6c0,1.7,0.1,3.4,0.4,5c1,5.2,4.3,8.3,9.5,9.1c1.6,0.3,3.3,0.4,5,0.4c15.8,0,31.7,0,47.5,0
		C120.4,103.1,121.3,103.1,122.8,103.1z"/>
	<path d="M95,68.2c7.5,0,14.6,0,21.7,0c7.1,0,14.2,0,21.6,0c-0.2,0.7-0.2,1.2-0.4,1.7c-2,4.5-4,8.9-5.9,13.4
		c-0.5,1.1-1.2,1.5-2.4,1.5c-15.7,0-31.3,0-47,0c-3.5,0-4.9-1.5-5-5c0-0.6,0-1.1,0-1.7c0-24.6,0-49.2,0-73.8c0-1,0-2,0-3.2
		C83.5,1,89.1,1,95,1C95,23.4,95,45.6,95,68.2z"/>
	<path d="M214,114.8c0-8.8,0-17.1,0-25.5c3.2,0,6.2,0,9.2,0c0.5,1.7,0.6,64.3,0.1,67.1c-3,0-6,0-9.3,0c0-1.9,0-3.7,0-5.8
		c-0.5,0.3-0.8,0.3-0.9,0.5c-3,3.6-6.9,5.4-11.4,6c-4,0.6-8,0.6-11.9-0.5c-9.3-2.8-14.4-9.3-16.1-18.6c-1-5.2-0.5-10.3,1.3-15.3
		c6.4-17.7,28-19.1,37.7-8.9C213,114,213.3,114.2,214,114.8z M199.3,149c5.1,0,9.9-2.2,12.8-7.5c3.2-5.8,3.2-11.8,0-17.6
		c-3-5.6-8.8-8.2-15.6-7.4c-5.9,0.7-10.5,4.7-12.2,10.7c-0.8,2.8-0.9,5.6-0.5,8.5C184.8,143.7,190.6,148.8,199.3,149z"/>
	<path d="M174.3,1.1c3.6,0,6.9,0,10.4,0c0,1,0,1.8,0,2.7c0,12.9,0,25.7,0,38.6c0,2.4,0.3,4.8,0.9,7.1c1.3,5.3,4.8,8.6,10.1,9.8
		c3.6,0.8,7.1,0.9,10.7,0c6-1.4,9.6-5.5,10.5-11.9c0.3-1.9,0.4-3.8,0.4-5.7c0-12.6,0-25.3,0-37.9c0-0.9,0-1.7,0-2.7
		c3.5,0,6.7,0,10.1,0c0.1,0.7,0.2,1.4,0.2,2.1c0,13.2,0,26.4,0,39.6c0,3.5-0.4,6.9-1.4,10.2c-2.4,7.9-7.6,13-15.5,15.2
		c-6,1.6-12,1.7-18,0.3c-10.3-2.3-16.6-9.3-17.9-19.9c-0.3-2.4-0.4-4.8-0.5-7.2c0-12.5,0-24.9,0-37.4C174.3,3,174.3,2.1,174.3,1.1z"
		/>
	<path d="M477.4,136.1c-12.4,0-24.7,0-37,0c-0.2,5.4,3.4,10.5,8.5,12.3c7,2.5,13.6,0.4,18.1-5.8c1.5,0,3.2,0,4.8,0
		c1.6,0,3.2,0,5.2,0c-0.4,1.1-0.6,2-0.9,2.8c-1.8,4.2-4.9,7.3-9,9.2c-8.2,3.9-16.5,4-24.8,0.1c-5-2.3-8.4-6.3-10.3-11.5
		c-2.4-6.6-2.7-13.3-0.6-20c2.8-9.1,10.7-15.1,20.5-15.8c3.1-0.2,6.2-0.1,9.3,0.7c8.8,2.2,14.7,8.9,16.1,18.2
		c0.3,2.3,0.4,4.6,0.5,6.9C477.8,134.2,477.6,135.1,477.4,136.1z M440.3,128.1c9.3,0,18.3,0,27.4,0c0.3-6.5-5-11.8-12.2-12.3
		C447.3,115.1,441.1,120.1,440.3,128.1z"/>
	<path d="M407,47.8c-12.8,0-25.1,0-37.3,0c-0.3,5.3,3.4,10.5,8.5,12.3c7,2.5,13.7,0.4,18.1-5.8c1.5,0,3.2,0,4.9,0c1.6,0,3.2,0,5.1,0
		c-0.3,1.1-0.5,1.9-0.8,2.7c-1.6,3.8-4.3,6.8-7.9,8.7c-8.7,4.7-17.6,4.8-26.4,0.5c-4.8-2.3-8-6.3-9.8-11.3c-2.2-6-2.6-12.2-1-18.4
		c2.5-9.9,10.3-16.5,20.5-17.3c3.3-0.3,6.5-0.2,9.8,0.6c8.8,2.3,13.8,8.1,15.8,16.8c0.5,2.1,0.5,4.3,0.7,6.4
		C407.1,44.6,407,46,407,47.8z M369.6,39.6c2.5,0.5,25.8,0.4,27.5-0.1c0.1-6.1-5.1-12.1-13.6-12.1C375.8,27.4,370.1,32.5,369.6,39.6
		z"/>
	<path d="M594.6,47.8c-12.5,0-24.8,0-37.3,0c0.7,5.3,2.7,9.5,7.5,11.7c4.4,2,9,2,13.5,0.2c2.1-0.9,3.8-2.3,5.1-4.3
		c0.4-0.6,0.8-1.2,1.6-1.1c2.9,0,5.9,0,9.2,0c-0.3,1-0.5,1.9-0.8,2.6c-1.6,3.6-4.1,6.5-7.5,8.5c-9,5.1-18.1,5.2-27.3,0.6
		c-4.7-2.4-7.7-6.4-9.5-11.3c-2.2-6-2.5-12.2-0.9-18.4c2.5-9.8,10.5-16.4,20.7-17.1c3.2-0.2,6.4-0.1,9.5,0.6c8.7,2.2,14.6,8.8,16,18
		C594.9,41.1,595.1,44.3,594.6,47.8z M584.9,39.8c0.1-2.9-0.8-5.3-2.5-7.4c-5-6.2-15.9-6.7-21.4-0.8c-2.2,2.3-3.3,5.1-3.7,8.3
		C566.7,39.8,575.7,39.8,584.9,39.8z"/>
	<path d="M279.6,136.2c-12.6,0-24.8,0-37.1,0c0,5.6,3.7,10.6,8.8,12.3c7,2.3,13.3,0.2,17.7-5.8c3.2,0,6.5,0,10,0
		c-0.4,1.1-0.6,2.1-1,3c-2,4.2-5.2,7.3-9.4,9.2c-7.8,3.5-15.7,3.6-23.5,0.2c-5.4-2.3-9.1-6.5-11.1-12c-2.2-5.8-2.5-11.9-1.1-17.9
		c2.4-10.2,10.4-17,20.9-17.7c3.1-0.2,6.2-0.1,9.3,0.6c7.5,1.9,12.5,6.4,15.1,13.7C279.9,126.4,280.2,131.1,279.6,136.2z
		 M269.9,128.1c0.1-6.9-5.5-12.2-13.1-12.4c-8-0.2-13.8,5.2-14.3,12.4C251.6,128.1,260.8,128.1,269.9,128.1z"/>
	<path d="M238.8,20.3c3.2,0,6.2,0,9.4,0c0.1,1.7,0.1,3.2,0.2,5.1c0.6-0.5,1-0.8,1.3-1.1c6-5.2,13-6.3,20.4-4.2
		c4.7,1.3,7.9,4.6,9.4,9.1c0.9,2.5,1.5,5.3,1.5,7.9c0.2,9.9,0.1,19.8,0.1,29.7c0,0.3-0.1,0.6-0.1,1.1c-3.1,0-6.1,0-9.5,0
		c0-0.9,0-1.7,0-2.6c0-8,0.1-16,0-24c0-2.3-0.3-4.6-0.9-6.8c-1.2-4.2-4.3-6.5-8.6-6.8c-1.4-0.1-2.9-0.1-4.3,0.2
		c-5.3,1-8.8,5.1-9.2,10.8c-0.2,3.1-0.1,6.2-0.1,9.3c0,5.9-0.1,11.8-0.1,17.7c0,0.7-0.1,1.4-0.1,2.2c-3.2,0-6.2,0-9.4,0
		C238.8,52.2,238.8,36.4,238.8,20.3z"/>
	<path d="M446.3,53.9c3.1,0,6.2,0,9.3,0c0.9,3,2.6,5.3,5.6,6.3c4.2,1.4,8.3,1.3,12.4-0.2c2.1-0.8,3.7-2.2,3.8-4.7
		c0.1-2.6-1.1-4.5-3.3-5.6c-1-0.5-2.1-0.8-3.2-1c-3.7-0.7-7.4-1.2-11.1-1.9c-1-0.2-2-0.5-3-0.8c-5.8-1.9-8.9-5.9-9.2-11.6
		c-0.3-6.1,2.5-10.8,8-13.2c1.7-0.7,3.5-1.3,5.3-1.6c5.3-0.8,10.5-0.7,15.6,1.2c5.9,2.2,9.3,7.3,9.4,13.7c-1.5,0-2.9,0.1-4.4,0.1
		c-1.5,0-3,0-4.4,0c-0.2-0.3-0.4-0.4-0.4-0.5c-0.8-4.3-3.7-6.4-7.8-7c-3-0.5-5.9-0.3-8.7,0.9c-1.8,0.8-3.2,2.1-3.5,4.2
		c-0.3,2.6,1.1,4.7,3.9,5.6c1.8,0.5,3.6,0.7,5.4,1.1c2.8,0.5,5.7,0.9,8.5,1.4c0.6,0.1,1.2,0.3,1.9,0.4c8.4,2.3,12.4,9.7,9.8,18.1
		c-1.1,3.5-3.3,6-6.4,7.7c-2.3,1.3-4.9,2-7.5,2.3c-4.6,0.6-9.3,0.6-13.8-0.8c-6.2-1.9-10.7-5.6-12.1-12.3c-0.1-0.3-0.1-0.6-0.1-0.9
		C446.2,54.6,446.3,54.4,446.3,53.9z"/>
	<path d="M321.3,147.7c9.6,0,18.9,0,28.4,0c0,3,0,5.7,0,8.5c-1.7,0.5-35.5,0.6-38.6,0.1c0-22.2,0-44.5,0-66.9c3.3,0,6.6,0,10.2,0
		C321.3,108.8,321.3,128.1,321.3,147.7z"/>
	<path d="M326.5,68.3c-6.1-16-12.1-31.8-18.2-47.9c3.6,0,6.9,0,10.4,0c4.6,13,9.2,26,13.8,39.1c0.1,0,0.3,0,0.4,0
		c4.5-13,9-26.1,13.6-39.1c3.5,0,6.8,0,10.5,0c-6.1,16-12.1,31.8-18.1,47.7c-2,0.5-4.1,0.2-6.2,0.2
		C330.7,68.3,328.7,68.3,326.5,68.3z"/>
	<path d="M518,5.1c2.2,0,4.2,0,6.3,0c1,0,2,0,3.3,0c0,5.1,0,9.9,0,15c5,0,9.8,0,14.8,0c0.2,2.9,0.1,5.7,0.1,8.7c-5,0-9.7,0-14.4,0
		c-0.6,1.9-0.8,26.1-0.3,30.8c4.8,0,9.6,0,14.6,0c0,3,0,5.7,0,8.3c-0.1,0.1-0.3,0.3-0.4,0.3c-4.5,0-9,0.3-13.4,0
		c-5.6-0.3-9.9-4.7-10.5-10.3c-0.1-1.1-0.2-2.2-0.2-3.3c0-15.6,0-31.1,0-46.7C517.9,6.9,518,6.2,518,5.1z"/>
	<path d="M415.3,147.7c4.2,0,8.2,0,12.3,0c0,3,0,5.8,0,8.9c-2.9,0-5.7,0.1-8.4,0c-1.8-0.1-3.7-0.1-5.4-0.6c-4.5-1.1-7-4.2-7.8-8.7
		c-0.2-1.2-0.3-2.4-0.3-3.6c0-17.3,0-34.6,0-52c0-0.7,0-1.4,0-2.4c3.2-0.3,6.3-0.1,9.7-0.1C415.3,108.8,415.3,128.1,415.3,147.7z"/>
	<path d="M388.1,147.7c4.3,0,8.2,0,12.3,0c0,3,0,5.8,0,8.8c-2.7,0-5.2,0.1-7.7,0c-2.1-0.1-4.2-0.1-6.2-0.6c-4.6-1.1-7.1-4.3-7.9-8.9
		c-0.2-1.2-0.2-2.4-0.2-3.6c0-17.3,0-34.5,0-51.8c0-0.7,0.1-1.4,0.1-2.3c3.2,0,6.2,0,9.6,0C388.1,108.8,388.1,128.1,388.1,147.7z"/>
	<path d="M443.1,20.5c0,2.6,0,5.3,0,8.3c-5.5,0-11,0-16.8,0c-0.1,4.6,0,8.8,0,13.1c0,4.4,0,8.8,0,13.2c0,4.3,0,8.6,0,13
		c-3.3,0-6.4,0-9.6,0c0-0.7-0.1-1.4-0.1-2.1c0-10.8-0.1-21.6,0-32.3c0-2,0.3-4.2,1.1-6.1c1.7-4.4,5.2-7,9.8-7.3
		c5-0.3,10-0.1,15.1-0.1C442.7,20.3,442.8,20.4,443.1,20.5z"/>
	<path d="M292.6,20.3c3.2,0,6.2,0,9.4,0c0,16,0,31.9,0,47.8c-3.2,0-6.2,0-9.4,0C292.6,52.2,292.6,36.4,292.6,20.3z"/>
	<path d="M366.3,156.5c-3.1,0-6.1,0-9.1,0c-0.5-1.8-0.6-45.5-0.1-47.9c3,0,6,0,9,0C366.6,110.3,366.8,152.1,366.3,156.5z"/>
	<path d="M505.8,68.3c-2.6,0-5,0-7.5,0c-0.5,0-1.1-0.1-1.8-0.1c0-16,0-31.9,0-47.8c3.1,0,6.1,0,9.1,0
		C506.2,22,506.3,64.3,505.8,68.3z"/>
	<path d="M573.6,1c3.5,0,7.1,0,10.9,0c-0.2,0.5-0.3,1-0.6,1.3c-2.4,3.7-4.8,7.4-7.1,11.1c-0.7,1.1-1.4,1.5-2.7,1.5
		c-2.1-0.1-4.3,0-6.5,0C567.8,13.1,571.6,4.3,573.6,1z"/>
	<path d="M297.3,0c3.6,0,6,2.3,6,5.9c0,3.6-2.3,6.1-5.8,6.1c-3.4,0-6-2.5-6.1-6C291.3,2.6,293.8,0,297.3,0z"/>
	<path d="M361.7,88.3c3.6,0,5.9,2.4,6,6c0,3.6-2.4,6.1-5.9,6.1c-3.4,0-6-2.6-6-6.1C355.7,90.7,358.1,88.3,361.7,88.3z"/>
	<path d="M507.3,6.1c0,3.5-2.6,6-6.1,5.9c-3.4-0.1-6-2.8-5.9-6.2c0.1-3.5,2.6-5.9,6.2-5.8C505,0,507.3,2.4,507.3,6.1z"/>
</g>
</svg>
